<svg id="e86f03dKi5Z1" xmlns="http://www.w3.org/2000/svg" xmlns:xlink="http://www.w3.org/1999/xlink" viewBox="0 0 640 480" shape-rendering="geometricPrecision" text-rendering="geometricPrecision"><line x1="-62.085766" y1="71.283164" x2="62.085767" y2="-71.283163" transform="translate(62.085767 71.283164)" fill="none" stroke="#24395b" stroke-width="2"/><line x1="-145.369597" y1="-239.999999" x2="145.369598" y2="240" transform="translate(269.541132 240.000001)" fill="none" stroke="#24395b" stroke-width="2"/><line x1="-112.544635" y1="68.199566" x2="112.544635" y2="-68.199566" transform="translate(527.455365 411.800434)" fill="none" stroke="#24395b" stroke-width="2"/><line x1="28.433172" y1="111.450026" x2="-28.433172" y2="-111.450025" transform="translate(109.354246 368.549975)" fill="none" stroke="#24395b" stroke-width="2"/><line x1="40.460537" y1="-13.615885" x2="-40.460536" y2="13.615885" transform="translate(40.460538 270.715835)" fill="none" stroke="#24395b" stroke-width="2"/><line x1="-67.678958" y1="52.060737" x2="67.678959" y2="-52.060737" transform="translate(148.600034 205.039213)" fill="none" stroke="#24395b" stroke-width="2"/><line x1="-138.962122" y1="-54.46354" x2="138.962122" y2="54.46354" transform="translate(355.241115 207.442016)" fill="none" stroke="#24395b" stroke-width="2"/><line x1="-39.646253" y1="109.047222" x2="39.646254" y2="-109.047222" transform="translate(454.556984 370.952778)" fill="none" stroke="#24395b" stroke-width="2"/><line x1="-72.898381" y1="-40.847656" x2="72.898381" y2="40.847656" transform="translate(567.101619 302.753212)" fill="none" stroke="#24395b" stroke-width="2"/><line x1="-178.20791" y1="109.047222" x2="178.207909" y2="-109.047222" transform="translate(315.995328 370.952778)" fill="none" stroke="#24395b" stroke-width="2"/><line x1="-26.63107" y1="-163.510762" x2="26.63107" y2="163.510762" transform="translate(242.910063 316.489238)" fill="none" stroke="#24395b" stroke-width="2"/><line x1="-135.958618" y1="239.999999" x2="135.958618" y2="-239.999999" transform="translate(405.49975 240.000001)" fill="none" stroke="#24395b" stroke-width="2"/><line x1="-49.270816" y1="-171.800433" x2="49.270816" y2="171.800434" transform="translate(590.729184 171.800435)" fill="none" stroke="#24395b" stroke-width="2"/><line x1="-23.627566" y1="130.952778" x2="23.627565" y2="-130.952777" transform="translate(517.830803 130.952779)" fill="none" stroke="#24395b" stroke-width="2"/><line x1="-56.065409" y1="76.489238" x2="56.065409" y2="-76.489238" transform="translate(272.344402 76.489238)" fill="none" stroke="#24395b" stroke-width="2"/><line x1="-41.248123" y1="-112.531286" x2="41.248123" y2="112.531286" transform="translate(369.657934 112.531287)" fill="none" stroke="#24395b" stroke-width="2"/><line x1="-40.460537" y1="111.450025" x2="40.460537" y2="-111.450025" transform="translate(40.460539 368.549975)" fill="none" stroke="#24395b" stroke-width="2"/><line x1="0" y1="-111.450025" x2="0" y2="111.450026" transform="translate(80.921075 368.549975)" fill="none" stroke="#24395b" stroke-width="2"/><line x1="-62.085767" y1="142.16586" x2="62.085768" y2="-142.165859" transform="translate(62.085768 142.165861)" fill="none" stroke="#24395b" stroke-width="2"/><line x1="108.139496" y1="-65.676622" x2="-108.139496" y2="65.676622" transform="translate(108.139498 218.655098)" fill="none" stroke="#24395b" stroke-width="2"/><line x1="-19.622892" y1="76.489237" x2="19.622893" y2="-76.489237" transform="translate(235.901887 76.489239)" fill="none" stroke="#24395b" stroke-width="2"/><line x1="-77.690638" y1="-114.934089" x2="77.690638" y2="114.934089" transform="translate(333.215419 114.934091)" fill="none" stroke="#24395b" stroke-width="2"/><line x1="136.559319" y1="-125.06591" x2="-136.55932" y2="125.06591" transform="translate(274.346738 354.93409)" fill="none" stroke="#24395b" stroke-width="2"/><line x1="-166.994827" y1="-111.450025" x2="166.994828" y2="111.450025" transform="translate(247.915902 368.549975)" fill="none" stroke="#24395b" stroke-width="2"/><line x1="-90.305356" y1="-196.228934" x2="90.305357" y2="196.228934" transform="translate(179.235776 279.526114)" fill="none" stroke="#24395b" stroke-width="2"/><line x1="-72.898381" y1="-109.047223" x2="72.898382" y2="109.047222" transform="translate(567.101619 370.952779)" fill="none" stroke="#24395b" stroke-width="2"/><line x1="-40.460537" y1="40.847655" x2="40.460538" y2="-40.847656" transform="translate(40.460538 297.947606)" fill="none" stroke="#24395b" stroke-width="2"/><line x1="10.812614" y1="-114.934089" x2="-10.812615" y2="114.93409" transform="translate(421.718672 114.934091)" fill="none" stroke="#24395b" stroke-width="2"/><line x1="-103.734357" y1="-60.470548" x2="103.734357" y2="60.470549" transform="translate(536.265643 60.47055)" fill="none" stroke="#24395b" stroke-width="2"/><line x1="-34.44018" y1="46.053729" x2="34.44018" y2="-46.053729" transform="translate(398.091106 46.053731)" fill="none" stroke="#24395b" stroke-width="2"/><line x1="89.103955" y1="-27.291841" x2="-89.103955" y2="27.291841" transform="translate(405.099282 289.197397)" fill="none" stroke="#24395b" stroke-width="2"/><line x1="-16.626064" y1="-109.047223" x2="16.626064" y2="109.047222" transform="translate(510.829301 370.952779)" fill="none" stroke="#24395b" stroke-width="2"/><line x1="-61.084599" y1="-30.956116" x2="61.084599" y2="30.956116" transform="translate(578.915401 449.043885)" fill="none" stroke="#24395b" stroke-width="2"/><line x1="-39.659603" y1="38.244619" x2="39.659603" y2="-38.244619" transform="translate(600.340397 38.244619)" fill="none" stroke="#24395b" stroke-width="2"/><line x1="-33.252127" y1="-33.238779" x2="33.252128" y2="33.238779" transform="translate(33.252128 33.238779)" fill="none" stroke="#24395b" stroke-width="2"/><line x1="-28.833639" y1="98.114467" x2="28.833639" y2="-98.114466" transform="translate(170.62573 98.114468)" fill="none" stroke="#24395b" stroke-width="2"/><line x1="-28.833639" y1="98.114467" x2="28.833639" y2="-98.114466" transform="translate(170.62573 98.114468)" fill="none" stroke="#24395b" stroke-width="2"/><line x1="-8.409813" y1="-76.489237" x2="8.409813" y2="76.489238" transform="translate(207.869182 76.489239)" fill="none" stroke="#24395b" stroke-width="2"/><line x1="-83.297181" y1="40.847655" x2="83.297181" y2="-40.847655" transform="translate(172.2276 40.847657)" fill="none" stroke="#24395b" stroke-width="2"/><line x1="-114.546971" y1="25.229434" x2="114.546972" y2="-25.229434" transform="translate(525.453028 204.638746)" fill="none" stroke="#24395b" stroke-width="2"/><line x1="-72.084098" y1="-111.450025" x2="72.084097" y2="111.450025" transform="translate(153.005174 368.549975)" fill="none" stroke="#24395b" stroke-width="2"/><line x1="-35.040881" y1="-18.541632" x2="35.040882" y2="18.541632" transform="translate(234.500251 461.458368)" fill="#091f43" stroke="#24395b" stroke-width="2"/><line x1="-11.213082" y1="-7.608877" x2="11.213082" y2="7.608877" transform="translate(77.717338 74.086435)" fill="none" stroke="#24395b" stroke-width="2"/><line x1="44.465209" y1="-30.435508" x2="-44.465209" y2="30.435508" transform="translate(44.465211 112.13082)" fill="none" stroke="#24395b" stroke-width="2"/><line x1="39.659603" y1="52.661439" x2="-39.659603" y2="-52.661438" transform="translate(600.340397 126.747874)" fill="none" stroke="#24395b" stroke-width="2"/><line x1="6.207242" y1="-158.244618" x2="-6.207242" y2="158.244619" transform="translate(322.202569 158.24462)" fill="none" stroke="#24395b" stroke-width="2"/></svg>